<?xml version="1.0" encoding="utf-8"?>
<!-- Generator: Adobe Illustrator 24.1.0, SVG Export Plug-In . SVG Version: 6.00 Build 0)  -->
<svg version="1.1" id="Layer_1" xmlns="http://www.w3.org/2000/svg" xmlns:xlink="http://www.w3.org/1999/xlink" x="0px" y="0px"
	 viewBox="0 0 1024 1024" style="enable-background:new 0 0 1024 1024;" xml:space="preserve">
<g id="Layer_2_1_">
	<path d="M611,607.8h-54L449,348.6L341,607.8h-54v54h31.5l-29.4,70.6l49.9,20.8l38.1-91.4h144l38.1,91.4l49.8-20.8l-29.5-70.6H611
		V607.8z M399.5,607.8L449,489l49.5,118.8H399.5z"/>
	<path d="M827,840H179V192h648V840z M233,786h540V246H233V786z"/>
	<polygon points="719,354 665,354 665,300 611,300 611,354 557,354 557,408 611,408 611,462 665,462 665,408 719,408 	"/>
</g>
</svg>
