<?xml version="1.0" encoding="utf-8"?>
<!-- Generator: Adobe Illustrator 24.1.0, SVG Export Plug-In . SVG Version: 6.00 Build 0)  -->
<svg version="1.1" id="Layer_1" xmlns="http://www.w3.org/2000/svg" xmlns:xlink="http://www.w3.org/1999/xlink" x="0px" y="0px"
	 viewBox="0 0 1024 1024" style="enable-background:new 0 0 1024 1024;" xml:space="preserve">
<g id="Layer_2_1_">
	<path d="M715,190.4H283v513h108c46.7,0,95.5,23.9,95.9,24.2l12.1,6l12-6c0.5-0.2,49.3-24.2,96-24.2h108V190.4z M607,649.4
		c-44.3,0-87.6,15.8-108,24.4c-20.4-8.6-63.7-24.4-108-24.4h-54v-405h324v405H607z"/>
	<path d="M742,271.4v54h27v428.9H607c-44.3,0-87.6,15.8-108,24.4c-20.4-8.6-63.7-24.4-108-24.4H229V325.4h27v-54h-81v540h216
		c46.7,0,95.5,23.9,95.9,24.2l12.1,6l12-6c0.5-0.2,49.3-24.2,96-24.2h216v-540L742,271.4z"/>
</g>
</svg>
